<svg xmlns="http://www.w3.org/2000/svg" width="1224" height="792" viewBox="0 0 1224 792">
  <path d="M600.982 449.187l1.039-4.749c16.493 3.723 34.476-1.081 46.958-14.269 6.309-6.673 10.399-14.638 12.309-22.99l4.052.898c-6.431 29.111-35.239 47.515-64.358 41.11z" fill="#FFF200"/>
  <path d="M665.34 408.077l-4.052-.898c3.8-16.541-1.015-34.604-14.237-47.106-6.856-6.491-15.082-10.646-23.683-12.475l.861-3.878c29.112 6.431 47.519 35.24 41.111 64.357z" fill="#EC008C"/>
  <path d="M576.944 361.987c-6.525 6.9-10.682 15.188-12.512 23.856l-4.561-1.014c6.421-29.126 35.241-47.518 64.357-41.11l-.861 3.878c-16.343-3.499-34.076 1.356-46.423 14.39z" fill="#00AEEF"/>
  <path d="M600.982 449.187c-29.125-6.421-47.518-35.24-41.11-64.356l4.561 1.014c-3.414 16.308 1.446 33.95 14.441 46.237 6.71 6.371 14.734 10.487 23.147 12.356l-1.039 4.749z"/>
</svg>
